<?xml version="1.0" encoding="utf-8"?>
<!-- Generator: Adobe Illustrator 25.2.1, SVG Export Plug-In . SVG Version: 6.00 Build 0)  -->
<svg version="1.1" id="Capa_1" xmlns="http://www.w3.org/2000/svg" xmlns:xlink="http://www.w3.org/1999/xlink" x="0px" y="0px"
	 viewBox="0 0 729.1 318.32" style="enable-background:new 0 0 729.1 318.32;" xml:space="preserve">
<style type="text/css">
	.st0{fill:#FFFFFF;}
	.st1{fill:#F59D49;}
</style>
<g>
	<path class="st0" d="M338.77,129.43V22.33h61.82v8.27h-52.45v39.81h47.15v8.43h-47.15v42.31h53.23v8.27H338.77z"/>
	<path class="st0" d="M438.99,129.43V30.61h-29.82v-8.27h69.31v8.27h-30.13v98.82H438.99z"/>
	<path class="st0" d="M492.07,129.43V22.33h55.58v8.27h-46.21v40.12h41.21V79h-41.21v50.42H492.07z"/>
</g>
<g>
	<path class="st0" d="M340.26,259.73V152.64h21.39l43.09,57.76c0.62,0.73,1.4,1.74,2.34,3.04c0.94,1.3,1.82,2.58,2.65,3.82
		c0.83,1.25,1.4,2.24,1.72,2.97h0.78c0-1.77,0-3.51,0-5.23c0-1.72,0-3.25,0-4.61v-57.76h22.01v107.09h-21.39l-44.02-59.17
		c-1.04-1.46-2.13-3.07-3.28-4.84c-1.15-1.77-1.98-3.12-2.5-4.06h-0.78c0,1.56,0,3.1,0,4.61c0,1.51,0,2.94,0,4.29v59.17H340.26z"/>
	<path class="st0" d="M493.4,261.6c-9.05,0-16.65-1.54-22.79-4.61c-6.14-3.07-10.77-7.78-13.89-14.13
		c-3.12-6.35-4.68-14.41-4.68-24.2c0-9.89,1.56-17.98,4.68-24.28c3.12-6.3,7.73-10.98,13.82-14.05c6.09-3.07,13.55-4.61,22.4-4.61
		c8.33,0,15.35,1.48,21.08,4.45c5.72,2.97,10.04,7.55,12.96,13.74c2.91,6.19,4.37,14.18,4.37,23.96v5.62h-57.29
		c0.21,4.79,0.96,8.85,2.26,12.18c1.3,3.33,3.33,5.8,6.09,7.42c2.76,1.61,6.43,2.42,11.01,2.42c2.5,0,4.76-0.31,6.79-0.94
		c2.03-0.62,3.77-1.56,5.23-2.81c1.46-1.25,2.6-2.81,3.43-4.68c0.83-1.87,1.25-4,1.25-6.4h21.23c0,5.21-0.94,9.73-2.81,13.58
		c-1.87,3.85-4.48,7.05-7.81,9.6c-3.33,2.55-7.31,4.48-11.94,5.78C504.15,260.95,499.02,261.6,493.4,261.6z M474.36,209.77h34.66
		c0-3.12-0.39-5.83-1.17-8.12c-0.78-2.29-1.85-4.16-3.2-5.62c-1.35-1.46-2.99-2.52-4.92-3.2c-1.93-0.68-4.09-1.01-6.48-1.01
		c-3.96,0-7.26,0.65-9.91,1.95c-2.65,1.3-4.68,3.28-6.09,5.93C475.84,202.36,474.88,205.72,474.36,209.77z"/>
	<path class="st0" d="M537.9,259.73l29.82-42.62l-27.63-39.5h26.07l15.61,24.67h0.78l15.77-24.67h24.51l-27.79,39.34l29.35,42.78
		h-25.6l-17.8-27.94h-0.78l-17.8,27.94H537.9z"/>
	<path class="st0" d="M669.19,261.6c-8.95,0-16.55-1.54-22.79-4.61c-6.24-3.07-10.98-7.81-14.21-14.21
		c-3.23-6.4-4.84-14.44-4.84-24.12c0-9.89,1.61-17.98,4.84-24.28c3.23-6.3,7.96-10.98,14.21-14.05c6.24-3.07,13.84-4.61,22.79-4.61
		c9.16,0,16.83,1.54,23.03,4.61c6.19,3.07,10.9,7.75,14.13,14.05c3.22,6.3,4.84,14.39,4.84,24.28c0,9.68-1.61,17.72-4.84,24.12
		c-3.23,6.4-7.94,11.14-14.13,14.21C686.02,260.07,678.34,261.6,669.19,261.6z M669.19,244.74c4.79,0,8.61-0.88,11.47-2.65
		c2.86-1.77,4.97-4.47,6.32-8.12c1.35-3.64,2.03-8.12,2.03-13.43v-3.75c0-5.31-0.68-9.78-2.03-13.43c-1.35-3.64-3.46-6.37-6.32-8.2
		c-2.86-1.82-6.69-2.73-11.47-2.73c-4.68,0-8.46,0.91-11.32,2.73c-2.86,1.82-4.97,4.55-6.32,8.2c-1.35,3.64-2.03,8.12-2.03,13.43
		v3.75c0,5.31,0.68,9.78,2.03,13.43c1.35,3.64,3.46,6.35,6.32,8.12C660.73,243.86,664.5,244.74,669.19,244.74z"/>
</g>
<g>
	<path class="st0" d="M349.45,297.7c-1.76,0-3.25-0.33-4.47-0.98c-1.22-0.66-2.14-1.65-2.77-2.97c-0.63-1.33-0.94-2.99-0.94-4.99
		c0-2.99,0.72-5.23,2.17-6.71c1.44-1.49,3.47-2.23,6.07-2.23c1.49,0,2.81,0.24,3.94,0.72s2.02,1.19,2.67,2.14s0.97,2.15,0.97,3.61
		h-2.01c0-1.09-0.23-1.98-0.68-2.68c-0.45-0.7-1.1-1.22-1.93-1.56c-0.83-0.34-1.83-0.52-2.98-0.52c-1.24,0-2.33,0.24-3.25,0.73
		c-0.92,0.49-1.64,1.25-2.14,2.28c-0.5,1.03-0.76,2.38-0.76,4.04v0.53c0,1.63,0.25,2.95,0.76,3.95c0.5,1.01,1.22,1.75,2.14,2.22
		c0.92,0.47,2.01,0.71,3.27,0.71c1.16,0,2.16-0.17,3-0.52c0.84-0.34,1.49-0.86,1.94-1.56c0.45-0.7,0.68-1.59,0.68-2.68h1.96
		c0,1.48-0.33,2.69-0.99,3.65c-0.66,0.96-1.57,1.67-2.71,2.13C352.24,297.47,350.93,297.7,349.45,297.7z"/>
	<path class="st0" d="M365.34,297.7c-1.28,0-2.36-0.25-3.26-0.74c-0.9-0.5-1.58-1.25-2.04-2.28s-0.69-2.33-0.69-3.9
		c0-1.59,0.23-2.9,0.69-3.92s1.14-1.77,2.04-2.27c0.9-0.5,1.99-0.74,3.26-0.74c1.31,0,2.41,0.25,3.29,0.74s1.55,1.25,2.01,2.27
		c0.46,1.02,0.69,2.32,0.69,3.92c0,1.58-0.23,2.88-0.69,3.9c-0.46,1.02-1.13,1.78-2.01,2.28S366.65,297.7,365.34,297.7z
		 M365.34,296.17c0.89,0,1.64-0.18,2.24-0.53c0.6-0.35,1.07-0.9,1.39-1.65s0.48-1.72,0.48-2.91v-0.6c0-1.19-0.16-2.16-0.48-2.91
		s-0.78-1.3-1.39-1.65c-0.6-0.35-1.35-0.53-2.24-0.53c-0.89,0-1.64,0.18-2.24,0.53s-1.07,0.9-1.39,1.65s-0.48,1.72-0.48,2.91v0.6
		c0,1.19,0.16,2.16,0.48,2.91s0.78,1.3,1.39,1.65S364.45,296.17,365.34,296.17z"/>
	<path class="st0" d="M374.11,297.4v-13.25h1.44l0.18,2.09h0.18c0.37-0.6,0.77-1.08,1.21-1.42c0.44-0.34,0.92-0.59,1.44-0.74
		c0.52-0.15,1.07-0.23,1.66-0.23c0.89,0,1.65,0.18,2.29,0.54c0.64,0.36,1.09,0.98,1.36,1.85H384c0.35-0.59,0.75-1.05,1.18-1.4
		c0.44-0.34,0.92-0.6,1.45-0.76c0.53-0.16,1.09-0.24,1.67-0.24c0.79,0,1.49,0.13,2.09,0.4s1.08,0.71,1.42,1.33
		c0.34,0.62,0.52,1.46,0.52,2.52v9.29h-1.81v-9.09c0-0.57-0.07-1.04-0.21-1.42c-0.14-0.38-0.34-0.67-0.59-0.87
		c-0.25-0.2-0.55-0.34-0.88-0.43c-0.34-0.08-0.7-0.13-1.08-0.13c-0.64,0-1.23,0.16-1.78,0.49c-0.55,0.33-0.99,0.79-1.33,1.4
		c-0.34,0.6-0.52,1.34-0.52,2.22v7.83h-1.81v-9.09c0-0.57-0.07-1.04-0.2-1.42c-0.13-0.38-0.33-0.67-0.58-0.87
		c-0.25-0.2-0.54-0.34-0.87-0.43c-0.33-0.08-0.68-0.13-1.04-0.13c-0.64,0-1.24,0.16-1.8,0.49c-0.56,0.33-1.02,0.79-1.37,1.4
		c-0.35,0.6-0.53,1.34-0.53,2.22v7.83H374.11z"/>
	<path class="st0" d="M399.82,297.7c-1.26,0-2.28-0.32-3.05-0.96c-0.77-0.64-1.16-1.75-1.16-3.35v-9.24h1.81v9.07
		c0,0.59,0.08,1.07,0.23,1.44c0.15,0.37,0.36,0.66,0.63,0.87c0.27,0.21,0.58,0.36,0.94,0.44c0.36,0.08,0.75,0.13,1.17,0.13
		c0.67,0,1.31-0.16,1.9-0.49c0.6-0.33,1.08-0.8,1.45-1.41c0.37-0.61,0.55-1.35,0.55-2.2v-7.83h1.81v13.25h-1.41l-0.2-2.09h-0.18
		c-0.37,0.6-0.79,1.08-1.25,1.42c-0.46,0.34-0.97,0.59-1.51,0.74C401.02,297.63,400.44,297.7,399.82,297.7z"/>
	<path class="st0" d="M409.66,297.4v-13.25h1.44l0.18,2.09h0.18c0.37-0.6,0.79-1.08,1.26-1.42c0.47-0.34,0.98-0.59,1.52-0.74
		s1.13-0.23,1.75-0.23c0.84,0,1.57,0.14,2.2,0.42c0.63,0.28,1.12,0.73,1.47,1.35s0.53,1.47,0.53,2.54v9.24h-1.81v-9.07
		c0-0.59-0.08-1.07-0.23-1.44c-0.15-0.37-0.36-0.66-0.63-0.87s-0.58-0.36-0.94-0.44c-0.36-0.08-0.76-0.13-1.2-0.13
		c-0.67,0-1.31,0.16-1.9,0.49c-0.6,0.33-1.08,0.79-1.45,1.4c-0.37,0.6-0.55,1.34-0.55,2.22v7.83H409.66z"/>
	<path class="st0" d="M423.59,281.44v-2.24h1.81v2.24H423.59z M423.59,297.4v-13.25h1.81v13.25H423.59z"/>
	<path class="st0" d="M433.44,297.7c-1.09,0-2.03-0.24-2.82-0.73c-0.79-0.49-1.39-1.25-1.8-2.28c-0.41-1.03-0.62-2.38-0.62-4.04
		c0-1.56,0.21-2.84,0.63-3.84c0.42-1,1.02-1.74,1.8-2.23s1.7-0.73,2.76-0.73c0.57,0,1.11,0.07,1.61,0.2
		c0.5,0.13,0.96,0.35,1.36,0.64s0.76,0.68,1.06,1.17h0.15v-6.67h1.81v18.21h-1.41l-0.2-1.94h-0.18c-0.47,0.76-1.07,1.32-1.8,1.69
		C435.06,297.52,434.28,297.7,433.44,297.7z M433.74,296.12c0.91,0,1.64-0.2,2.2-0.6c0.56-0.4,0.97-0.98,1.23-1.74
		c0.26-0.76,0.39-1.68,0.39-2.77v-0.45c0-1.04-0.1-1.9-0.31-2.57c-0.21-0.67-0.5-1.19-0.86-1.56c-0.36-0.37-0.76-0.62-1.2-0.77
		s-0.88-0.21-1.33-0.21c-0.84,0-1.54,0.17-2.1,0.52c-0.56,0.34-0.98,0.89-1.26,1.62c-0.28,0.74-0.42,1.7-0.42,2.9v0.63
		c0,1.24,0.15,2.23,0.45,2.96s0.73,1.25,1.27,1.57C432.36,295.96,433,296.12,433.74,296.12z"/>
	<path class="st0" d="M446.23,297.7c-0.52,0-1.03-0.06-1.54-0.19c-0.5-0.13-0.95-0.33-1.35-0.6s-0.71-0.65-0.94-1.12
		c-0.24-0.47-0.35-1.05-0.35-1.74c0-0.91,0.22-1.65,0.67-2.23c0.44-0.58,1.07-1.03,1.88-1.36c0.81-0.33,1.76-0.55,2.86-0.67
		s2.3-0.18,3.59-0.18v-1.69c0-0.54-0.1-1-0.29-1.37c-0.19-0.38-0.53-0.67-1.01-0.88s-1.15-0.32-2.03-0.32
		c-0.84,0-1.5,0.11-1.99,0.33c-0.49,0.22-0.83,0.5-1.02,0.84c-0.19,0.34-0.29,0.73-0.29,1.15v0.4h-1.74
		c-0.02-0.08-0.03-0.17-0.03-0.25s0-0.18,0-0.3c0-0.84,0.22-1.53,0.65-2.07c0.44-0.54,1.06-0.94,1.86-1.21
		c0.81-0.27,1.73-0.4,2.77-0.4c1.06,0,1.95,0.16,2.67,0.47c0.72,0.31,1.28,0.75,1.66,1.32c0.39,0.57,0.58,1.26,0.58,2.07v7.61
		c0,0.32,0.06,0.54,0.19,0.67s0.3,0.19,0.52,0.19h1.06v1.16c-0.25,0.1-0.52,0.18-0.79,0.25c-0.28,0.07-0.57,0.1-0.87,0.1
		c-0.44,0-0.79-0.09-1.05-0.28s-0.44-0.44-0.55-0.78c-0.11-0.34-0.18-0.71-0.21-1.11h-0.18c-0.32,0.45-0.73,0.84-1.22,1.17
		c-0.5,0.33-1.04,0.58-1.62,0.76C447.53,297.62,446.9,297.7,446.23,297.7z M446.61,296.17c0.55,0,1.09-0.09,1.61-0.28
		s0.99-0.44,1.41-0.77c0.42-0.33,0.76-0.72,1.02-1.17s0.39-0.96,0.39-1.51v-1.36c-1.56,0-2.87,0.08-3.92,0.25
		c-1.05,0.17-1.84,0.46-2.37,0.88s-0.79,1.01-0.79,1.76c0,0.5,0.11,0.92,0.34,1.25c0.23,0.33,0.54,0.57,0.94,0.72
		C445.65,296.09,446.1,296.17,446.61,296.17z"/>
	<path class="st0" d="M460.99,297.7c-1.09,0-2.03-0.24-2.82-0.73c-0.79-0.49-1.39-1.25-1.8-2.28c-0.41-1.03-0.62-2.38-0.62-4.04
		c0-1.56,0.21-2.84,0.63-3.84c0.42-1,1.02-1.74,1.8-2.23s1.7-0.73,2.76-0.73c0.57,0,1.11,0.07,1.61,0.2
		c0.5,0.13,0.96,0.35,1.36,0.64s0.76,0.68,1.06,1.17h0.15v-6.67h1.81v18.21h-1.41l-0.2-1.94h-0.18c-0.47,0.76-1.07,1.32-1.8,1.69
		C462.61,297.52,461.83,297.7,460.99,297.7z M461.29,296.12c0.91,0,1.64-0.2,2.2-0.6c0.56-0.4,0.97-0.98,1.23-1.74
		c0.26-0.76,0.39-1.68,0.39-2.77v-0.45c0-1.04-0.1-1.9-0.31-2.57c-0.21-0.67-0.5-1.19-0.86-1.56c-0.36-0.37-0.76-0.62-1.2-0.77
		s-0.88-0.21-1.33-0.21c-0.84,0-1.54,0.17-2.1,0.52c-0.56,0.34-0.98,0.89-1.26,1.62c-0.28,0.74-0.42,1.7-0.42,2.9v0.63
		c0,1.24,0.15,2.23,0.45,2.96s0.73,1.25,1.27,1.57C459.91,295.96,460.55,296.12,461.29,296.12z"/>
	<path class="st0" d="M476.75,301.99c-0.32,0-0.6-0.02-0.84-0.06c-0.24-0.04-0.44-0.07-0.59-0.09v-1.36h0.98
		c0.44,0,0.86-0.08,1.26-0.23s0.78-0.45,1.13-0.89c0.35-0.45,0.67-1.1,0.96-1.95l-5.14-13.25h1.91l2.72,7.05
		c0.13,0.32,0.28,0.72,0.44,1.2c0.16,0.48,0.33,0.97,0.5,1.46s0.32,0.94,0.44,1.32h0.15c0.07-0.27,0.16-0.58,0.26-0.93
		c0.11-0.35,0.22-0.71,0.34-1.08c0.12-0.37,0.23-0.72,0.34-1.06c0.11-0.33,0.21-0.63,0.29-0.88l2.34-7.08h1.84l-4.53,13.02
		c-0.25,0.74-0.52,1.4-0.81,1.99c-0.29,0.59-0.61,1.09-0.97,1.51c-0.36,0.42-0.79,0.74-1.28,0.97
		C478.01,301.87,477.42,301.99,476.75,301.99z"/>
	<path class="st0" d="M494.2,297.4v-17.28h9.07c1.14,0,2.09,0.21,2.83,0.64s1.31,1.01,1.69,1.75c0.38,0.74,0.57,1.58,0.57,2.52
		c0,1.23-0.28,2.26-0.84,3.11s-1.31,1.45-2.23,1.8l3.68,7.45h-2.19l-3.45-7.1h-7.13v7.1H494.2z M496.19,288.59h6.88
		c1.02,0,1.83-0.31,2.42-0.94c0.59-0.63,0.88-1.5,0.88-2.61c0-0.67-0.13-1.24-0.38-1.71c-0.25-0.47-0.62-0.83-1.11-1.09
		c-0.49-0.26-1.09-0.39-1.81-0.39h-6.88V288.59z"/>
	<path class="st0" d="M515.16,297.7c-0.52,0-1.03-0.06-1.54-0.19c-0.5-0.13-0.95-0.33-1.35-0.6c-0.39-0.28-0.71-0.65-0.94-1.12
		c-0.24-0.47-0.35-1.05-0.35-1.74c0-0.91,0.22-1.65,0.67-2.23c0.44-0.58,1.07-1.03,1.88-1.36c0.81-0.33,1.76-0.55,2.86-0.67
		s2.3-0.18,3.59-0.18v-1.69c0-0.54-0.1-1-0.29-1.37c-0.19-0.38-0.53-0.67-1.01-0.88s-1.15-0.32-2.03-0.32
		c-0.84,0-1.5,0.11-1.99,0.33c-0.49,0.22-0.83,0.5-1.02,0.84c-0.19,0.34-0.29,0.73-0.29,1.15v0.4h-1.74
		c-0.02-0.08-0.03-0.17-0.03-0.25s0-0.18,0-0.3c0-0.84,0.22-1.53,0.65-2.07c0.44-0.54,1.06-0.94,1.86-1.21
		c0.81-0.27,1.73-0.4,2.77-0.4c1.06,0,1.95,0.16,2.67,0.47c0.72,0.31,1.28,0.75,1.66,1.32c0.39,0.57,0.58,1.26,0.58,2.07v7.61
		c0,0.32,0.06,0.54,0.19,0.67s0.3,0.19,0.52,0.19h1.06v1.16c-0.25,0.1-0.52,0.18-0.79,0.25c-0.28,0.07-0.57,0.1-0.87,0.1
		c-0.44,0-0.79-0.09-1.05-0.28s-0.44-0.44-0.55-0.78c-0.11-0.34-0.18-0.71-0.21-1.11h-0.18c-0.32,0.45-0.73,0.84-1.22,1.17
		c-0.5,0.33-1.04,0.58-1.62,0.76C516.46,297.62,515.83,297.7,515.16,297.7z M515.53,296.17c0.55,0,1.09-0.09,1.61-0.28
		s0.99-0.44,1.41-0.77c0.42-0.33,0.76-0.72,1.02-1.17s0.39-0.96,0.39-1.51v-1.36c-1.56,0-2.87,0.08-3.92,0.25
		c-1.05,0.17-1.84,0.46-2.37,0.88s-0.79,1.01-0.79,1.76c0,0.5,0.11,0.92,0.34,1.25c0.23,0.33,0.54,0.57,0.94,0.72
		C514.58,296.09,515.03,296.17,515.53,296.17z"/>
	<path class="st0" d="M525.43,297.4v-13.25h1.44l0.18,2.09h0.18c0.37-0.6,0.79-1.08,1.26-1.42c0.47-0.34,0.98-0.59,1.52-0.74
		s1.13-0.23,1.75-0.23c0.84,0,1.57,0.14,2.2,0.42c0.63,0.28,1.12,0.73,1.47,1.35s0.53,1.47,0.53,2.54v9.24h-1.81v-9.07
		c0-0.59-0.08-1.07-0.23-1.44c-0.15-0.37-0.36-0.66-0.63-0.87s-0.58-0.36-0.94-0.44c-0.36-0.08-0.76-0.13-1.2-0.13
		c-0.67,0-1.31,0.16-1.9,0.49c-0.6,0.33-1.08,0.79-1.45,1.4c-0.37,0.6-0.55,1.34-0.55,2.22v7.83H525.43z"/>
	<path class="st0" d="M539.36,297.4v-18.21h1.81v11.74l6.02-6.77h2.19l-4.58,5.16l4.83,8.08h-2.12l-3.9-6.75l-2.44,2.49v4.26H539.36
		z"/>
	<path class="st0" d="M551.95,281.44v-2.24h1.81v2.24H551.95z M551.95,297.4v-13.25h1.81v13.25H551.95z"/>
	<path class="st0" d="M557.31,297.4v-13.25h1.44l0.18,2.09h0.18c0.37-0.6,0.79-1.08,1.26-1.42c0.47-0.34,0.98-0.59,1.52-0.74
		s1.13-0.23,1.75-0.23c0.84,0,1.57,0.14,2.2,0.42c0.63,0.28,1.12,0.73,1.47,1.35s0.53,1.47,0.53,2.54v9.24h-1.81v-9.07
		c0-0.59-0.08-1.07-0.23-1.44c-0.15-0.37-0.36-0.66-0.63-0.87s-0.58-0.36-0.94-0.44c-0.36-0.08-0.76-0.13-1.2-0.13
		c-0.67,0-1.31,0.16-1.9,0.49c-0.6,0.33-1.08,0.79-1.45,1.4c-0.37,0.6-0.55,1.34-0.55,2.22v7.83H557.31z"/>
	<path class="st0" d="M573.51,301.99c-0.64,0-1.23-0.14-1.78-0.42c-0.55-0.28-0.98-0.66-1.3-1.16c-0.32-0.5-0.48-1.07-0.48-1.73
		c0-0.74,0.2-1.37,0.59-1.89c0.39-0.52,0.89-0.91,1.5-1.16c-0.44-0.18-0.77-0.46-1.01-0.83c-0.24-0.37-0.35-0.77-0.35-1.21
		c0-0.57,0.21-1.06,0.63-1.47c0.42-0.41,0.93-0.68,1.54-0.82c-0.55-0.37-0.99-0.84-1.32-1.41c-0.33-0.57-0.49-1.18-0.49-1.84
		c0-0.82,0.19-1.55,0.58-2.18s0.97-1.12,1.75-1.49c0.78-0.36,1.76-0.54,2.93-0.54c0.55,0,1.07,0.04,1.55,0.13s0.91,0.21,1.3,0.38
		c0.59-0.22,1.04-0.53,1.36-0.94s0.53-0.87,0.63-1.37h1.81c-0.02,0.47-0.13,0.92-0.35,1.36s-0.52,0.81-0.91,1.11
		c-0.39,0.3-0.85,0.5-1.38,0.58c0.44,0.4,0.76,0.86,0.96,1.36c0.2,0.5,0.3,1.04,0.3,1.61c0,0.79-0.19,1.5-0.57,2.13
		c-0.38,0.63-0.95,1.13-1.71,1.5c-0.76,0.37-1.74,0.55-2.93,0.55h-2.09c-0.5,0-0.92,0.1-1.23,0.29c-0.32,0.19-0.48,0.52-0.48,0.97
		c0,0.39,0.17,0.69,0.5,0.91c0.34,0.22,0.76,0.33,1.26,0.33h5.19c0.97,0,1.77,0.33,2.38,0.98c0.61,0.66,0.92,1.48,0.92,2.47
		c0,0.71-0.18,1.35-0.53,1.93s-0.84,1.04-1.45,1.37c-0.61,0.33-1.33,0.5-2.15,0.5H573.51z M573.91,300.55h4.71
		c0.44,0,0.83-0.09,1.18-0.28c0.35-0.19,0.63-0.44,0.84-0.77c0.21-0.33,0.31-0.68,0.31-1.04c0-0.64-0.19-1.15-0.55-1.54
		c-0.37-0.39-0.83-0.58-1.39-0.58h-5.11c-0.57,0-1.07,0.21-1.49,0.62s-0.63,0.91-0.63,1.5c0,0.64,0.21,1.15,0.62,1.52
		C572.82,300.36,573.32,300.55,573.91,300.55z M576.3,290.81c1.18,0,2.04-0.25,2.61-0.74s0.84-1.16,0.84-2
		c0-0.86-0.28-1.53-0.84-2.03s-1.43-0.74-2.61-0.74c-1.14,0-2,0.25-2.57,0.74s-0.86,1.17-0.86,2.03c0,0.52,0.13,0.99,0.38,1.41
		c0.25,0.42,0.63,0.75,1.15,0.98C574.91,290.69,575.55,290.81,576.3,290.81z"/>
	<path class="st0" d="M589.25,297.7c-0.87,0-1.65-0.09-2.32-0.26c-0.67-0.18-1.23-0.44-1.67-0.78c-0.44-0.34-0.78-0.76-1.01-1.25
		s-0.34-1.05-0.34-1.69c0-0.07,0-0.14,0-0.21c0-0.08,0.01-0.15,0.03-0.21h1.79c-0.02,0.08-0.03,0.16-0.03,0.21s0,0.11,0,0.16
		c0.02,0.66,0.18,1.16,0.48,1.52c0.3,0.36,0.73,0.62,1.28,0.77c0.55,0.15,1.19,0.23,1.91,0.23c0.62,0,1.18-0.09,1.67-0.26
		c0.5-0.18,0.89-0.43,1.18-0.77c0.29-0.34,0.44-0.75,0.44-1.23c0-0.62-0.19-1.09-0.57-1.41c-0.38-0.32-0.87-0.57-1.47-0.74
		c-0.6-0.18-1.23-0.37-1.89-0.57c-0.54-0.15-1.07-0.31-1.59-0.49c-0.52-0.18-0.99-0.4-1.42-0.67s-0.77-0.61-1.02-1.03
		c-0.25-0.42-0.38-0.95-0.38-1.59c0-0.55,0.11-1.05,0.34-1.49c0.23-0.44,0.55-0.81,0.98-1.12c0.43-0.31,0.95-0.55,1.57-0.72
		s1.33-0.25,2.12-0.25c0.87,0,1.62,0.1,2.24,0.3c0.62,0.2,1.12,0.47,1.51,0.82c0.39,0.34,0.67,0.73,0.86,1.16
		c0.18,0.43,0.28,0.88,0.28,1.35c0,0.07,0,0.14-0.01,0.23s-0.01,0.16-0.01,0.23h-1.79v-0.33c0-0.35-0.09-0.7-0.26-1.03
		s-0.49-0.62-0.93-0.86c-0.45-0.23-1.1-0.35-1.98-0.35c-0.52,0-0.97,0.05-1.35,0.14c-0.38,0.09-0.7,0.22-0.96,0.39
		c-0.26,0.17-0.45,0.37-0.58,0.62s-0.19,0.52-0.19,0.84c0,0.49,0.15,0.86,0.47,1.12c0.31,0.26,0.72,0.47,1.22,0.63
		c0.5,0.16,1.04,0.33,1.61,0.52c0.57,0.17,1.15,0.34,1.75,0.53c0.6,0.18,1.15,0.41,1.65,0.68c0.5,0.27,0.91,0.63,1.21,1.07
		c0.3,0.45,0.45,1.03,0.45,1.75c0,0.67-0.13,1.26-0.4,1.78c-0.27,0.51-0.64,0.94-1.11,1.27c-0.47,0.34-1.03,0.59-1.67,0.76
		C590.7,297.62,590,297.7,589.25,297.7z"/>
	<path class="st0" d="M607.18,297.7c-1.09,0-2.03-0.24-2.82-0.73c-0.79-0.49-1.39-1.25-1.8-2.28c-0.41-1.03-0.62-2.38-0.62-4.04
		c0-1.56,0.21-2.84,0.63-3.84c0.42-1,1.02-1.74,1.8-2.23s1.7-0.73,2.76-0.73c0.57,0,1.11,0.07,1.61,0.2
		c0.5,0.13,0.96,0.35,1.36,0.64s0.76,0.68,1.06,1.17h0.15v-6.67h1.81v18.21h-1.41l-0.2-1.94h-0.18c-0.47,0.76-1.07,1.32-1.8,1.69
		C608.8,297.52,608.02,297.7,607.18,297.7z M607.48,296.12c0.91,0,1.64-0.2,2.2-0.6c0.56-0.4,0.97-0.98,1.23-1.74
		c0.26-0.76,0.39-1.68,0.39-2.77v-0.45c0-1.04-0.1-1.9-0.31-2.57c-0.21-0.67-0.5-1.19-0.86-1.56c-0.36-0.37-0.76-0.62-1.2-0.77
		s-0.88-0.21-1.33-0.21c-0.84,0-1.54,0.17-2.1,0.52c-0.56,0.34-0.98,0.89-1.26,1.62c-0.28,0.74-0.42,1.7-0.42,2.9v0.63
		c0,1.24,0.15,2.23,0.45,2.96s0.73,1.25,1.27,1.57C606.1,295.96,606.74,296.12,607.48,296.12z"/>
	<path class="st0" d="M621.78,297.7c-1.26,0-2.33-0.25-3.2-0.74s-1.54-1.25-1.99-2.28c-0.45-1.02-0.68-2.33-0.68-3.9
		c0-1.59,0.23-2.9,0.68-3.92c0.45-1.02,1.12-1.77,2.01-2.27c0.89-0.5,2-0.74,3.32-0.74c1.23,0,2.25,0.24,3.08,0.73
		s1.46,1.19,1.89,2.12c0.43,0.92,0.64,2.06,0.64,3.4v1.16h-9.75c0,1.16,0.16,2.11,0.48,2.85c0.32,0.74,0.78,1.27,1.37,1.6
		c0.6,0.33,1.33,0.49,2.2,0.49c0.64,0,1.2-0.08,1.67-0.25c0.48-0.17,0.87-0.4,1.18-0.69c0.31-0.29,0.55-0.64,0.72-1.04
		c0.17-0.4,0.25-0.82,0.25-1.26h1.76c0,0.65-0.12,1.27-0.37,1.85c-0.24,0.58-0.6,1.09-1.06,1.52c-0.46,0.44-1.05,0.78-1.75,1.02
		S622.74,297.7,621.78,297.7z M617.8,289.82h7.86c0-0.84-0.1-1.54-0.29-2.1c-0.19-0.56-0.46-1.02-0.79-1.36s-0.73-0.59-1.2-0.74
		s-0.98-0.23-1.55-0.23c-0.82,0-1.53,0.16-2.12,0.47c-0.59,0.31-1.04,0.79-1.35,1.45C618.06,287.96,617.87,288.8,617.8,289.82z"/>
	<path class="st0" d="M636.21,297.4v-17.28h13.22v1.71H638.2v5.84h10.12v1.74H638.2v6.27h11.38v1.71H636.21z"/>
	<path class="st0" d="M657.54,297.4v-15.54h-6.12v-1.74h14.28v1.74h-6.17v15.54H657.54z"/>
	<path class="st0" d="M668.4,297.4v-17.28h12.16v1.71h-10.17v5.97h9.27v1.71h-9.27v7.88H668.4z"/>
</g>
<path class="st0" d="M174.37,108.88c2.44,12.04,9.83,21.22,17.84,29.88c2.69,2.91,3.29,4.82,0.62,7.94
	c-3.19,3.73-6.01,7.79-8.85,11.8c-2.09,2.96-4.08,3-6.04,0.06c-4.86-7.27-9.64-14.59-14.46-21.88c-0.64-0.97-1.34-1.9-1.7-2.4
	c-7,9.79-13.99,19.36-20.68,29.14c-1.05,1.53-1.24,4.07-0.97,6.02c3.35,23.87,13.65,44.8,27.82,63.97
	c7.88,10.65,16.8,20.43,28.62,26.77c31.61,16.96,64.19,9.32,77.29-27.08c4.84-18.2,0.01-40.41-14.06-53.49
	c-4.85-4.51-11.6-8.93-17.01-12.8c-3.51-2.52-3.85-1.89-1.14-5.17c3.92-4.74,7.9-9.9,12.05-14.42c1.49-1.63,0.89-3.54,2.95-4.64
	c0,0,1.39,1.18,1.39,1.18c9.04,7.76,18.75,14.46,26.64,23.25c20.13,22.41,25.9,56.68,12.01,84.37
	c-11.69,23.3-30.05,38.51-55.37,43.98c-29.93,6.46-56.07-1.5-78.25-23.1c-22.63-22.03-38.81-47.74-47.53-78.11
	c-0.13-0.46-0.61-0.82-1.7-2.25c-3.7,5.94-8,11.13-10.4,17.07c-3.98,9.85-6.93,20.15-9.91,30.37c-0.89,3.08-2.33,3.7-4.27,1.92
	c-6.46-5.91-12.81-11.96-18.78-18.36c-1.16-1.24-1.07-4.48-0.43-6.43c6.21-18.79,16.43-35.28,30.16-49.42
	c11.84-12.2,24.73-23.4,36.27-35.86c5.17-5.59,8.18-13.18,11.45-20.36c-16.44,20.1-38,33.23-59.47,46.67
	c-14.84,9.29-29.47,19.28-38.99,34.7c-11.26,18.25-7.89,43.64,7.17,58.72c13.6,13.62,29.77,18.83,48.49,15.57
	c8.91-1.55,17.03-5.59,23.7-11.92c3.46-3.29,5.63-3.28,8.51,0.99c3.51,5.2,7.85,9.88,12.11,14.52c2.46,2.68,2.51,4.4-0.38,6.84
	c-19.45,16.46-41.5,23.18-66.96,19.46c-24.5-3.57-43.01-15.9-56.72-36.13c-17.35-25.59-16.95-61.95,0.73-87.31
	c10.18-14.6,24.17-24.83,38.73-34.3c15.14-9.85,31.57-17.92,45.92-28.77c13.06-9.88,24.17-22.37,35.99-33.86
	c4.15-4.04,7.96-8.44,11.73-12.84c2.02-2.35,3.62-2.26,5.58-0.08c12.34,13.71,24.7,27.39,37.07,41.06c2.39,2.64,1.15,4.36-1.33,5.87
	c-7.3,4.44-14.67,4.13-22.12,0.38c-1.09-0.55-2.23-1.02-3.35-1.52C174.33,108.92,174.37,108.88,174.37,108.88z"/>
<path class="st0" d="M192.28,160.61c9.88-11.87,19.71-23.8,29.67-35.61c11.55-13.7,23.24-27.28,34.81-40.96
	c4.57-5.41,4.21-5.25-2.15-8.62c-4.7-2.48-8.91-6.05-12.9-9.63c-2.78-2.49-1.72-4.7,1.95-5.4c18.81-3.55,37.6-7.19,56.45-10.56
	c7.46-1.33,8.01-0.89,7.36,6.71c-1.27,14.86-3.01,29.69-4.55,44.52c-0.51,4.89-1.09,9.77-1.49,14.66c-0.32,3.91-2.41,4.33-4.61,1.85
	c-4.16-4.68-8.19-9.58-11.57-14.83c-2.11-3.29-3.2-4.05-5.91-0.8c-18.12,21.71-36.3,43.38-54.56,64.97
	c-2.6,3.08-2.05,5.26,0.23,8.25c9.53,12.49,17.34,25.93,22.24,40.99c1.26,3.88,0.82,6.75-2.1,9.47c-4.88,4.55-9.59,9.3-14.56,13.75
	c-4.16,3.72-4.97,3.37-6.16-1.88c-3.46-15.19-8.66-29.62-19.05-42.95c-2.77,4.76-5.43,9.13-7.89,13.6
	c-4.4,7.99-8.86,15.96-12.92,24.12c-2.18,4.38-4.45,3.44-6.57,0.57c-4.48-6.07-9.03-12.15-12.69-18.71
	c-1.22-2.18-0.79-6.37,0.54-8.7c8.58-15.09,17.61-29.93,26.49-44.85L192.28,160.61z"/>
<path class="st0" d="M205.02,131.09c1.28-3.64,4.44-7.97,5.85-11.56c12.48-31.91-11.38-66.49-48.3-68.45
	c-21.53-1.14-43.98,15.6-49.08,36.47c-0.79,3.23-1.25,6.55-2.22,9.71c-0.47,1.55-1.46,3.32-2.75,4.17
	c-7.31,4.81-14.79,9.36-22.21,14.01c-2.61,1.64-3.76,0.72-4.19-2.14c-6.56-44.7,25.49-86.27,69.94-90.35
	c32.83-3.01,58.71,8.42,77.12,35.36c5.31,7.77,8.74,19.5,12.04,28.52c0.69,1.87-0.96,3.15-2.28,4.73
	c-11.16,13.3-22.61,26.36-33.97,39.5L205.02,131.09z"/>
<polygon points="204.98,131.04 204.74,131.19 205.02,131.09 "/>
<path d="M192.32,160.58c0,0-0.04,0.03-0.04,0.03C192.28,160.61,192.32,160.58,192.32,160.58z"/>
<path d="M258.83,142.68c0,0-0.04-0.04-0.04-0.04C258.8,142.64,258.83,142.68,258.83,142.68z"/>
<path class="st1" d="M156.79,51.18c0,0,59.9-16.27,83.06,39.36l-36.03,42.27C203.82,132.81,244.78,67.52,156.79,51.18z"/>
<path class="st1" d="M238.04,164.5c1.88-2.11,17.85-22.35,18.62-21.91c20.09,11.58,38.96,31.72,45.19,54.39
	c0.44,1.62,0.83,3.25,1.14,4.89c3.59,18.74-1.93,39.02-14.52,53.36c-8.88,10.12-21.15,17.12-34.28,19.97
	c-12.68,2.75-25.39,0.64-37.52-3.64c-7.84-2.76-15.48-8.58-22.63-12.81c15.32,9.07,35.08,12.85,51.29,5.07
	c14.5-6.96,25.38-20.99,28.61-36.74c2.03-9.93,1.1-20.48-2.85-29.82C264.87,182.62,251.81,171.82,238.04,164.5z"/>
</svg>
